<?xml version="1.0" encoding="UTF-8"?> <svg xmlns="http://www.w3.org/2000/svg" viewBox="0 0 1559.6 439.81"><defs><style>.cls-1,.cls-2{fill:#fff;}.cls-1{fill-rule:evenodd;}.cls-3{fill:#ec1c24;}</style></defs><g id="Layer_2" data-name="Layer 2"><g id="Layer_2-2" data-name="Layer 2"><path class="cls-1" d="M238.38,107.23c19.91-10.07,34.77-20.12,86.87-30.41-34.9-50.45-76.32-70.09-94-76.82C239.12,22.62,237.8,71.92,238.38,107.23Z"></path><path class="cls-2" d="M624.92,104.6H541.56c-6.19,0-9.07,2.48-9.07,9.08V133.9H515.15V110.38c0-16.92,5.37-22.29,22.28-22.29H730.14c16.92,0,22.28,5.37,22.28,22.29V133.9H735.1V113.68c0-6.6-2.9-9.08-9.09-9.08H642.66V377H624.92Z"></path><path class="cls-2" d="M846.11,165.67c56.12,0,84.18,44.16,84.18,94.09,0,4.53-.83,11.14-.83,11.14H764C764,330.73,804.43,365,852.3,365c39.61,0,64-26,64-26l9.5,14.44S896.86,381.9,852.3,381.9c-58.18,0-106.47-42.09-106.47-107.7C745.83,204.46,793.29,165.67,846.11,165.67Zm66,89.14c-2.07-50.35-32.19-73-66.44-73-38,0-73,24.76-80.46,73Z"></path><path class="cls-2" d="M970.73,362.92l125-157.22c7.43-9.49,16.1-19,16.1-19v-.83s-7.43.83-21,.83H998c-5.78,0-9.08,2.89-9.08,9.08v17.74H972v-19c0-16.92,7-23.93,23.93-23.93h139.48v14L1009.93,341.87c-7.42,9.5-16.5,19-16.5,19v.82s7.84-.82,21.46-.82h103.16c5.77,0,9.08-2.89,9.08-9.08V334H1144v19c0,16.91-7,23.93-23.93,23.93H970.73Z"></path><path class="cls-2" d="M1276.52,165.67c59,0,106.87,46.63,106.87,106.88,0,61.48-47.87,109.35-106.87,109.35S1169.64,334,1169.64,272.55C1169.64,212.3,1217.51,165.67,1276.52,165.67Zm0,199.31c49.1,0,88.71-40,88.71-92.43,0-51.17-39.61-90-88.71-90s-88.73,38.79-88.73,90C1187.79,325,1227.41,365,1276.52,365Z"></path><path class="cls-2" d="M1426.73,333.62s21.45,31.36,64,31.36c26.41,0,50.76-13.2,50.76-38.79,0-52-118.84-40.43-118.84-106.87,0-35.49,29.71-53.65,70.56-53.65,17.74,0,58.19,7.84,58.19,35.08v15.68H1534v-9.9c0-17.34-25.58-23.94-40-23.94-33.43,0-53.24,12-53.24,35.49,0,52.82,118.85,40,118.85,108.11,0,33-30.13,55.71-69.33,55.71-52,0-75.92-35.49-75.92-35.49Z"></path><path class="cls-2" d="M103.62,373.24c-6.92,0-14.29,0-22.11-.08-8.87-.05-18.32-.1-28.35-.1-18.06,0-30.47-3.55-39.07-11.17C4.84,353.7.23,342.62,0,328V151.72C.23,137.24,4.84,126.16,14.09,118c8.84-7.83,21.26-11.48,39.07-11.48,10,0,19.48,0,28.35-.1q11.73-.07,22.11-.09c8.22,0,14.72.06,20.44.18s11.88.19,18.72.19c6.2,0,12.23,0,18.13-.1l8.68-.06L168,133.42H64.6c-9.49,0-16.62,2.61-21.17,7.76-4.39,5-6.53,12.55-6.53,23.2v56.69H152.47v24.65H36.9v70.16c0,10.66,2.14,18.25,6.53,23.21,4.54,5.14,11.67,7.75,21.17,7.75H168l1.58,26.2-9.39-.07c-5.8,0-11.63-.09-17.61-.09-6.71,0-12.77.06-18.52.18S111.84,373.24,103.62,373.24Z"></path><path class="cls-2" d="M298.36,132.58a39.94,39.94,0,0,1-21.45,6.07c-1,0-2.08,0-3.11,0a29.32,29.32,0,0,1-10-2.21V375.5c0,12.82-4.91,34.32-37.78,34.32H212.15l-3.73,24.94a141.3,141.3,0,0,0,15,3,168.3,168.3,0,0,0,24.2,2.08c17.83,0,31.07-5.13,40.48-15.67s14.31-26.56,14.31-47.34V129.85A40.12,40.12,0,0,1,298.36,132.58Z"></path><path class="cls-2" d="M497.3,376.9V321H395.1c-7.26,0-12.94-2.25-17.37-6.89A23.21,23.21,0,0,1,371,297.25a28.49,28.49,0,0,1,2.48-11L440.64,133.9h32.5L411,276.13a18.49,18.49,0,0,0-1.9,8.21c0,2.77,1,11.81,14.32,11.81H497.3V222.29l.55-35.18h31.78v109h31.92v24.22l-26.32.58h-5.6V376.9Z"></path><path class="cls-3" d="M316.42,84.41c-2-18.79-19.68-26.17-36.71-23.85-14.29,1.95-33.35,14-35.11,29.48-2,17.44,11.74,33.48,29.2,34.18,15.47.62,32.09-6.87,39-21.4a37.23,37.23,0,0,0,3.58-18.41"></path><path class="cls-3" d="M316.42,90.34c-1.54,16.08-14.36,29-29.79,32.76-16.34,4-34.38-2.33-40.25-19.13-3-8.57-2.44-17.37,2.72-24.9,4.35-6.36,11.36-11.33,18.3-14.48,14.33-6.52,34.82-7.24,44.81,7.28,3.78,5.5,4.44,12,4.21,18.47"></path><path class="cls-1" d="M272.08,94.17c3.95-4.26,5.16-11,2.71-15.14s-7.64-4-11.58.3-5.15,11-2.7,15.13,7.63,4,11.57-.29Z"></path></g></g></svg> 