<svg width="1559.6" height="439.81" xmlns="http://www.w3.org/2000/svg">
 <defs>
  <style>.cls-1,.cls-2{fill:#000;}.cls-1{fill-rule:evenodd;}.cls-3{fill:#ec1c24;}</style>
 </defs>
 <g>
  <title>background</title>
  <rect x="-1" y="-1" width="1561.6" height="441.81" id="canvas_background" fill="none"/>
 </g>
 <g>
  <title>Layer 1</title>
  <g id="Layer_2">
   <g id="Layer_2-2">
    <path class="cls-1" d="m238.38,106.23c19.91,-10.07 34.77,-20.12 86.87,-30.41c-34.9,-50.45 -76.32,-70.09 -94,-76.82c7.87,22.62 6.55,71.92 7.13,107.23z" id="svg_1"/>
    <path class="cls-2" d="m624.92,103.6l-83.36,0c-6.19,0 -9.07,2.48 -9.07,9.08l0,20.22l-17.34,0l0,-23.52c0,-16.92 5.37,-22.29 22.28,-22.29l192.71,0c16.92,0 22.28,5.37 22.28,22.29l0,23.52l-17.32,0l0,-20.22c0,-6.6 -2.9,-9.08 -9.09,-9.08l-83.35,0l0,272.4l-17.74,0l0,-272.4z" id="svg_2"/>
    <path class="cls-2" d="m846.11,164.67c56.12,0 84.18,44.16 84.18,94.09c0,4.53 -0.83,11.14 -0.83,11.14l-165.46,0c0,59.83 40.43,94.1 88.3,94.1c39.61,0 64,-26 64,-26l9.5,14.44s-28.94,28.46 -73.5,28.46c-58.18,0 -106.47,-42.09 -106.47,-107.7c0,-69.74 47.46,-108.53 100.28,-108.53zm66,89.14c-2.07,-50.35 -32.19,-73 -66.44,-73c-38,0 -73,24.76 -80.46,73l146.9,0z" id="svg_3"/>
    <path class="cls-2" d="m970.73,361.92l125,-157.22c7.43,-9.49 16.1,-19 16.1,-19l0,-0.83s-7.43,0.83 -21,0.83l-92.83,0c-5.78,0 -9.08,2.89 -9.08,9.08l0,17.74l-16.92,0l0,-19c0,-16.92 7,-23.93 23.93,-23.93l139.48,0l0,14l-125.48,157.28c-7.42,9.5 -16.5,19 -16.5,19l0,0.82s7.84,-0.82 21.46,-0.82l103.16,0c5.77,0 9.08,-2.89 9.08,-9.08l0,-17.79l16.87,0l0,19c0,16.91 -7,23.93 -23.93,23.93l-149.34,0l0,-14.01z" id="svg_4"/>
    <path class="cls-2" d="m1276.52,164.67c59,0 106.87,46.63 106.87,106.88c0,61.48 -47.87,109.35 -106.87,109.35s-106.88,-47.9 -106.88,-109.35c0,-60.25 47.87,-106.88 106.88,-106.88zm0,199.31c49.1,0 88.71,-40 88.71,-92.43c0,-51.17 -39.61,-90 -88.71,-90s-88.73,38.79 -88.73,90c0,52.45 39.62,92.45 88.73,92.45l0,-0.02z" id="svg_5"/>
    <path class="cls-2" d="m1426.73,332.62s21.45,31.36 64,31.36c26.41,0 50.76,-13.2 50.76,-38.79c0,-52 -118.84,-40.43 -118.84,-106.87c0,-35.49 29.71,-53.65 70.56,-53.65c17.74,0 58.19,7.84 58.19,35.08l0,15.68l-17.4,0l0,-9.9c0,-17.34 -25.58,-23.94 -40,-23.94c-33.43,0 -53.24,12 -53.24,35.49c0,52.82 118.85,40 118.85,108.11c0,33 -30.13,55.71 -69.33,55.71c-52,0 -75.92,-35.49 -75.92,-35.49l12.37,-12.79z" id="svg_6"/>
    <path class="cls-2" d="m103.62,372.24c-6.92,0 -14.29,0 -22.11,-0.08c-8.87,-0.05 -18.32,-0.1 -28.35,-0.1c-18.06,0 -30.47,-3.55 -39.07,-11.17c-9.25,-8.19 -13.86,-19.27 -14.09,-33.89l0,-176.28c0.23,-14.48 4.84,-25.56 14.09,-33.72c8.84,-7.83 21.26,-11.48 39.07,-11.48c10,0 19.48,0 28.35,-0.1q11.73,-0.07 22.11,-0.09c8.22,0 14.72,0.06 20.44,0.18s11.88,0.19 18.72,0.19c6.2,0 12.23,0 18.13,-0.1l8.68,-0.06l-1.59,26.88l-103.4,0c-9.49,0 -16.62,2.61 -21.17,7.76c-4.39,5 -6.53,12.55 -6.53,23.2l0,56.69l115.57,0l0,24.65l-115.57,0l0,70.16c0,10.66 2.14,18.25 6.53,23.21c4.54,5.14 11.67,7.75 21.17,7.75l103.4,0l1.58,26.2l-9.39,-0.07c-5.8,0 -11.63,-0.09 -17.61,-0.09c-6.71,0 -12.77,0.06 -18.52,0.18s-12.22,0.18 -20.44,0.18z" id="svg_7"/>
    <path class="cls-2" d="m298.36,131.58a39.94,39.94 0 0 1 -21.45,6.07c-1,0 -2.08,0 -3.11,0a29.32,29.32 0 0 1 -10,-2.21l0,239.06c0,12.82 -4.91,34.32 -37.78,34.32l-13.87,0l-3.73,24.94a141.3,141.3 0 0 0 15,3a168.3,168.3 0 0 0 24.2,2.08c17.83,0 31.07,-5.13 40.48,-15.67s14.31,-26.56 14.31,-47.34l0,-246.98a40.12,40.12 0 0 1 -4.05,2.73z" id="svg_8"/>
    <path class="cls-2" d="m497.3,375.9l0,-55.9l-102.2,0c-7.26,0 -12.94,-2.25 -17.37,-6.89a23.21,23.21 0 0 1 -6.73,-16.86a28.49,28.49 0 0 1 2.48,-11l67.16,-152.35l32.5,0l-62.14,142.23a18.49,18.49 0 0 0 -1.9,8.21c0,2.77 1,11.81 14.32,11.81l73.88,0l0,-73.86l0.55,-35.18l31.78,0l0,109l31.92,0l0,24.22l-26.32,0.58l-5.6,0l0,55.99l-32.33,0z" id="svg_9"/>
    <path class="cls-3" d="m316.42,83.41c-2,-18.79 -19.68,-26.17 -36.71,-23.85c-14.29,1.95 -33.35,14 -35.11,29.48c-2,17.44 11.74,33.48 29.2,34.18c15.47,0.62 32.09,-6.87 39,-21.4a37.23,37.23 0 0 0 3.58,-18.41" id="svg_10"/>
    <path class="cls-3" d="m316.42,89.34c-1.54,16.08 -14.36,29 -29.79,32.76c-16.34,4 -34.38,-2.33 -40.25,-19.13c-3,-8.57 -2.44,-17.37 2.72,-24.9c4.35,-6.36 11.36,-11.33 18.3,-14.48c14.33,-6.52 34.82,-7.24 44.81,7.28c3.78,5.5 4.44,12 4.21,18.47" id="svg_11"/>
    <path class="cls-1" d="m272.08,93.17c3.95,-4.26 5.16,-11 2.71,-15.14s-7.64,-4 -11.58,0.3s-5.15,11 -2.7,15.13s7.63,4 11.57,-0.29z" id="svg_12"/>
   </g>
  </g>
 </g>
</svg>